<svg width="36" height="36" viewBox="0 0 36 36" fill="none" xmlns="http://www.w3.org/2000/svg">
<rect width="36" height="36" fill="#1F1F1F"/>
<path d="M21.1207 22.1625C21.4698 22.87 22.0113 23.4647 22.6831 23.8782C23.355 24.2917 24.1299 24.5073 24.9187 24.5002C26.514 24.5002 27.5332 23.7026 27.5332 22.6012C27.5332 21.2816 26.4859 20.8136 24.7309 20.0452L23.7679 19.6324C20.9902 18.4489 19.1441 16.9661 19.1441 13.8319C19.1441 10.944 21.3446 8.74686 24.7826 8.74686C25.8985 8.66589 27.0134 8.91565 27.9881 9.46491C28.9627 10.0142 29.7538 10.8385 30.2625 11.835L27.2644 13.7599C27.0681 13.2661 26.7262 12.8438 26.2841 12.549C25.842 12.2542 25.3207 12.1009 24.7894 12.1095C24.5578 12.0862 24.3239 12.1114 24.1026 12.1835C23.8813 12.2556 23.6775 12.3731 23.5041 12.5284C23.3307 12.6836 23.1916 12.8733 23.0956 13.0854C22.9996 13.2974 22.9489 13.5271 22.9466 13.7599C22.9466 14.9152 23.6621 15.3821 25.3091 16.0976L26.2721 16.5094C29.5436 17.9122 31.3897 19.3421 31.3897 22.5574C31.3897 26.0235 28.6672 27.9225 25.0099 27.9225C23.5853 28.0131 22.1648 27.6896 20.92 26.9909C19.6752 26.2922 18.6591 25.2483 17.9944 23.985L21.1207 22.1625ZM7.52175 22.5C8.127 23.5732 8.67712 24.48 9.99675 24.48C11.2612 24.48 12.06 23.985 12.06 22.0612V8.97186H15.9097V22.1152C15.9097 26.1011 13.572 27.9157 10.161 27.9157C8.95611 27.981 7.75971 27.6799 6.72918 27.0522C5.69866 26.4245 4.88229 25.4995 4.3875 24.399L7.52175 22.5Z" fill="#F5DE19"/>
</svg>
