<svg width="50" height="11" viewBox="0 0 50 11" fill="none" xmlns="http://www.w3.org/2000/svg">
<g clip-path="url(#clip0_22_74)">
<path d="M41.9467 0.004199V1.61154H38.4921V10.0678H36.7646V1.61163H33.2381V0.004199H41.9467ZM42.335 9.10919C42.4567 9.10919 42.5632 9.15294 42.6533 9.24063C42.7447 9.32822 42.7902 9.4332 42.7915 9.55546C42.7912 9.63568 42.7689 9.7143 42.727 9.78269C42.6859 9.8502 42.6283 9.90614 42.5596 9.94528C42.4918 9.98583 42.4141 10.007 42.335 10.0064C42.2085 10.0064 42.1009 9.96257 42.0108 9.87497C41.9207 9.78728 41.8761 9.68114 41.8773 9.55546C41.8762 9.4332 41.9207 9.32822 42.0108 9.24063C42.1009 9.15294 42.2085 9.10919 42.335 9.10919ZM8.09816 10.0678L1.72876 2.15106V10.0637H0.00131226V0H2.16048L10.2075 9.99255L10.2076 1.61163L10.2069 0.004199H18.9155V1.61154H11.935V4.19734H17.5487V5.80478H11.935V8.4605H18.9156V10.0678H8.09816ZM24.4517 5.78944L25.5838 7.19689L23.2641 10.0797H20.9971L24.4517 5.78944ZM23.2641 0.008398L26.1868 3.63809L29.1003 0.0195302L31.3609 0.0161124L27.3185 5.04368L31.3675 10.072H29.1003L21.0035 0.008398H23.2641ZM45.2832 5.76689H46.0486V8.71595C46.0476 8.98693 45.9889 9.21866 45.8743 9.41367C45.7584 9.60848 45.598 9.7573 45.3921 9.86228C45.1872 9.96599 44.9473 10.0191 44.6746 10.0191C44.4253 10.0191 44.2018 9.97419 44.0028 9.8865C43.8038 9.79881 43.6459 9.66737 43.53 9.49433C43.4128 9.32139 43.3555 9.10568 43.3555 8.84739H44.1223C44.1234 8.96037 44.1491 9.05832 44.1982 9.14034C44.2466 9.22129 44.3173 9.28654 44.4019 9.32823C44.4896 9.37217 44.5904 9.39404 44.7038 9.39404C44.8268 9.39404 44.9321 9.36865 45.0175 9.3167C45.1029 9.26592 45.1685 9.18985 45.2142 9.08839C45.2586 8.98801 45.2821 8.8635 45.2832 8.71585V5.76689ZM49.1981 6.92015C49.1795 6.74145 49.0975 6.6018 48.9547 6.50269C48.8107 6.4023 48.6247 6.35279 48.3964 6.35279C48.2362 6.35279 48.098 6.37701 47.9833 6.42427C47.8686 6.47271 47.7797 6.53726 47.7188 6.61919C47.658 6.70102 47.6275 6.79447 47.6251 6.89945C47.6251 6.98704 47.6462 7.06321 47.6871 7.12658C47.7296 7.19303 47.7869 7.24872 47.8545 7.28927C47.928 7.33546 48.0065 7.37298 48.0887 7.40108C48.1752 7.43106 48.2619 7.45645 48.3484 7.47725L48.7475 7.57529C48.9079 7.6122 49.0636 7.66171 49.2122 7.72518C49.3608 7.78748 49.4954 7.86707 49.6136 7.96277C49.7318 8.05847 49.8255 8.17379 49.8945 8.30875C49.9636 8.4437 49.9987 8.6017 49.9987 8.78392C49.9987 9.02951 49.9355 9.24522 49.8079 9.43203C49.6804 9.61776 49.4966 9.76307 49.2555 9.86804C49.0156 9.97184 48.7252 10.0249 48.3836 10.0249C48.0535 10.0249 47.7656 9.97409 47.5233 9.87263C47.2799 9.77234 47.0903 9.6246 46.9533 9.43086C46.8164 9.23712 46.7426 9.0007 46.7321 8.72279H47.4906C47.5011 8.86809 47.548 8.98918 47.6275 9.08722C47.7082 9.18409 47.8136 9.25557 47.9424 9.30401C48.0722 9.35137 48.2174 9.37559 48.3777 9.37559C48.5451 9.37559 48.6925 9.3502 48.8201 9.30059C48.9465 9.25098 49.0459 9.18185 49.1174 9.09181C49.19 9.00295 49.2263 8.89807 49.2275 8.77816C49.2263 8.66859 49.1934 8.57748 49.1302 8.50591C49.0658 8.43442 48.9769 8.37447 48.8633 8.32603C48.7488 8.2776 48.6153 8.23375 48.4631 8.19576L47.9786 8.07351C47.6286 7.98464 47.3513 7.84979 47.1488 7.66864C46.9452 7.4876 46.8445 7.24777 46.8445 6.94671C46.8445 6.69994 46.9123 6.48306 47.0494 6.29733C47.1851 6.11179 47.3712 5.96756 47.6065 5.86493C47.8428 5.76113 48.1097 5.71035 48.4069 5.71035C48.7089 5.71035 48.9734 5.76113 49.2017 5.86493C49.4298 5.96756 49.609 6.11052 49.7388 6.29274C49.8687 6.47505 49.9367 6.68373 49.9402 6.92015H49.1981Z" fill="#EFEAEA"/>
</g>
<defs>
<clipPath id="clip0_22_74">
<rect width="50" height="10.1557" fill="white"/>
</clipPath>
</defs>
</svg>
