<svg width="36" height="36" viewBox="0 0 36 36" fill="none" xmlns="http://www.w3.org/2000/svg">
<path d="M18 21.2062C19.7708 21.2062 21.2062 19.7707 21.2062 18C21.2062 16.2292 19.7708 14.7937 18 14.7937C16.2292 14.7937 14.7937 16.2292 14.7937 18C14.7937 19.7707 16.2292 21.2062 18 21.2062Z" fill="#61DAFB"/>
<path d="M30.1781 12.7125C29.5594 12.4875 28.9125 12.2625 28.2375 12.0656C28.4063 11.3906 28.5469 10.7156 28.6594 10.0687C29.25 6.3562 28.6031 3.74058 26.8031 2.72808C26.2688 2.4187 25.6781 2.27808 25.0031 2.27808C23.0344 2.27808 20.5313 3.74058 18 6.18745C15.4688 3.74058 12.9656 2.27808 10.9969 2.27808C10.3219 2.27808 9.73125 2.4187 9.19688 2.72808C7.39688 3.7687 6.75 6.38433 7.34063 10.0687C7.45313 10.7156 7.59375 11.3906 7.7625 12.0656C7.0875 12.2625 6.44063 12.4593 5.82188 12.7125C2.30625 14.0625 0.393753 15.9187 0.393753 18C0.393753 20.0812 2.33438 21.9375 5.82188 23.2875C6.44063 23.5125 7.0875 23.7375 7.7625 23.9343C7.59375 24.6093 7.45313 25.2843 7.34063 25.9312C6.75 29.6437 7.39688 32.2593 9.19688 33.2718C9.73125 33.5812 10.3219 33.7218 10.9969 33.7218C12.9938 33.7218 15.4969 32.2593 18 29.8125C20.5313 32.2593 23.0344 33.7218 25.0031 33.7218C25.6781 33.7218 26.2688 33.5812 26.8031 33.2718C28.6031 32.2312 29.25 29.6156 28.6594 25.9312C28.5469 25.2843 28.4063 24.6093 28.2375 23.9343C28.9125 23.7375 29.5594 23.5406 30.1781 23.2875C33.6938 21.9375 35.6063 20.0812 35.6063 18C35.6063 15.9187 33.6938 14.0625 30.1781 12.7125ZM26.0156 4.13433C27.1688 4.80933 27.5625 6.89058 27.0844 9.8437C27 10.4343 26.8594 11.0531 26.6906 11.7C25.2281 11.3625 23.6813 11.1375 22.05 10.9968C21.0938 9.64683 20.1094 8.43745 19.125 7.34058C21.2063 5.28745 23.3156 3.8812 25.0313 3.8812C25.3969 3.8812 25.7344 3.96558 26.0156 4.13433ZM22.8656 20.8125C22.3594 21.7125 21.7688 22.6125 21.15 23.5125C20.1094 23.5968 19.0688 23.625 18 23.625C16.9031 23.625 15.8625 23.5968 14.85 23.5125C14.2313 22.6125 13.6688 21.7125 13.1625 20.8125C12.6281 19.8843 12.1219 18.9281 11.6719 18C12.1219 17.0718 12.6281 16.1156 13.1625 15.1875C13.6688 14.2875 14.2594 13.3875 14.8781 12.4875C15.9188 12.4031 16.9594 12.375 18.0281 12.375C19.125 12.375 20.1656 12.4031 21.1781 12.4875C21.7969 13.3875 22.3594 14.2875 22.8656 15.1875C23.4 16.1156 23.9063 17.0718 24.3563 18C23.8781 18.9281 23.4 19.8562 22.8656 20.8125ZM25.2 19.8843C25.6219 20.8687 25.9594 21.825 26.2688 22.7812C25.3125 23.0062 24.3 23.175 23.2313 23.3156C23.5688 22.7812 23.9344 22.2187 24.2438 21.6281C24.5813 21.0375 24.8906 20.4468 25.2 19.8843ZM18 27.5062C17.325 26.775 16.6781 25.9875 16.0594 25.1718C16.7063 25.2 17.3531 25.2281 18 25.2281C18.6469 25.2281 19.2938 25.2 19.9406 25.1718C19.3219 25.9875 18.675 26.775 18 27.5062ZM12.7688 23.2875C11.7 23.1468 10.6875 22.9781 9.73125 22.7531C10.0406 21.825 10.3781 20.8406 10.8 19.8562C11.1094 20.4187 11.4188 21.0093 11.7563 21.5718C12.0938 22.1906 12.4313 22.725 12.7688 23.2875ZM10.8 16.1156C10.3781 15.1312 10.0406 14.175 9.73125 13.2187C10.6875 12.9937 11.7 12.825 12.7688 12.6843C12.4313 13.2187 12.0656 13.7812 11.7563 14.3718C11.4188 14.9625 11.1094 15.5531 10.8 16.1156ZM18 8.4937C18.675 9.22495 19.3219 10.0125 19.9406 10.8281C19.2938 10.8 18.6469 10.7718 18 10.7718C17.3531 10.7718 16.7063 10.8 16.0594 10.8281C16.6781 10.0125 17.325 9.22495 18 8.4937ZM24.2438 14.4L23.2313 12.7125C24.3 12.8531 25.3125 13.0218 26.2688 13.2468C25.9594 14.175 25.6219 15.1593 25.2 16.1437C24.8906 15.5531 24.5813 14.9625 24.2438 14.4ZM8.91563 9.8437C8.4375 6.89058 8.83125 4.80933 9.98438 4.13433C10.2656 3.96558 10.6031 3.8812 10.9688 3.8812C12.6563 3.8812 14.7656 5.25933 16.875 7.34058C15.8906 8.40933 14.9063 9.64683 13.95 10.9968C12.3188 11.1375 10.7719 11.3906 9.30938 11.7C9.14063 11.0531 9.02813 10.4343 8.91563 9.8437ZM1.96875 18C1.96875 16.6781 3.57188 15.2718 6.38438 14.2312C6.94688 14.0062 7.56563 13.8093 8.18438 13.6406C8.63438 15.0468 9.19688 16.5375 9.87188 18.0281C9.19688 19.5187 8.60625 20.9812 8.18438 22.3875C4.30313 21.2625 1.96875 19.575 1.96875 18ZM9.98438 31.8656C8.83125 31.1906 8.4375 29.1093 8.91563 26.1562C9 25.5656 9.14063 24.9468 9.30938 24.3C10.7719 24.6375 12.3188 24.8625 13.95 25.0031C14.9063 26.3531 15.8906 27.5625 16.875 28.6593C14.7938 30.7125 12.6844 32.1187 10.9688 32.1187C10.6031 32.1187 10.2656 32.0343 9.98438 31.8656ZM27.0844 26.1562C27.5625 29.1093 27.1688 31.1906 26.0156 31.8656C25.7344 32.0343 25.3969 32.1187 25.0313 32.1187C23.3438 32.1187 21.2344 30.7406 19.125 28.6593C20.1094 27.5906 21.0938 26.3531 22.05 25.0031C23.6813 24.8625 25.2281 24.6093 26.6906 24.3C26.8594 24.9468 26.9719 25.5656 27.0844 26.1562ZM29.6156 21.7687C29.0531 21.9937 28.4344 22.1906 27.8156 22.3593C27.3656 20.9531 26.8031 19.4625 26.1281 17.9718C26.8031 16.4812 27.3938 15.0187 27.8156 13.6125C31.6969 14.7375 34.0313 16.425 34.0313 18C34.0313 19.3218 32.4 20.7281 29.6156 21.7687Z" fill="#61DAFB"/>
</svg>
