<svg width="36" height="27" viewBox="0 0 36 27" fill="none" xmlns="http://www.w3.org/2000/svg">
<g clip-path="url(#clip0_22_94)">
<path d="M30.977 15.541C29.7246 15.5475 28.636 15.8491 27.7246 16.295C27.3901 15.6327 27.0557 15.0426 26.9968 14.6098C26.9311 14.105 26.8525 13.7967 26.9311 13.1934C27.0098 12.5901 27.3639 11.7311 27.3573 11.6655C27.3508 11.6 27.2786 11.2918 26.5573 11.2853C25.836 11.2787 25.2131 11.423 25.1409 11.6131C25.0688 11.8032 24.9311 12.236 24.8393 12.6818C24.7147 13.3377 23.3968 15.6785 22.6427 16.9048C22.4 16.4263 22.1902 16.0065 22.1442 15.6721C22.0787 15.1672 21.9999 14.859 22.0787 14.2557C22.1574 13.6524 22.5115 12.7935 22.5049 12.7278C22.4983 12.6623 22.4262 12.354 21.7049 12.3476C20.9835 12.341 20.3605 12.4852 20.2885 12.6754C20.2164 12.8656 20.1376 13.3114 19.9869 13.7443C19.836 14.1771 18.0852 18.0853 17.6262 19.095C17.4407 19.5037 17.2461 19.9082 17.0426 20.3082C17.0426 20.3082 17.036 20.3279 17.0163 20.3607C16.9524 20.4861 16.8868 20.6107 16.8197 20.7344V20.7409C16.7213 20.9181 16.6164 21.0819 16.5639 21.0819C16.5246 21.0819 16.4524 20.6098 16.577 19.9672C16.8393 18.6099 17.4622 16.4984 17.4558 16.4263C17.4558 16.3869 17.5738 16.0197 17.0492 15.8294C16.5376 15.6393 16.3541 15.954 16.3081 15.954C16.2623 15.954 16.2294 16.0655 16.2294 16.0655C16.2294 16.0655 16.8 13.6918 15.1409 13.6918C14.105 13.6918 12.6754 14.8262 11.9672 15.8491C11.1621 16.2872 10.3577 16.7266 9.55405 17.1672C9.16733 17.3836 8.76725 17.6 8.39347 17.8033C8.36718 17.7771 8.34102 17.7442 8.31472 17.718C6.30814 15.5738 2.59677 14.059 2.75413 11.1804C2.81319 10.1312 3.17375 7.37703 9.88199 4.03283C15.4032 1.31145 19.7968 2.06549 20.5574 3.73766C21.6458 6.12463 18.2033 10.5574 12.4983 11.1999C10.3213 11.4426 9.18027 10.6033 8.89185 10.2885C8.59021 9.9606 8.54422 9.94091 8.43271 10.0066C8.24919 10.105 8.36718 10.4 8.43271 10.5705C8.60328 11.0163 9.30486 11.8032 10.4917 12.1902C11.5409 12.5311 14.0917 12.7213 17.1803 11.5279C20.636 10.1901 23.3377 6.47211 22.5443 3.35741C21.7507 0.19672 16.5049 -0.845874 11.5409 0.917985C8.59021 1.96733 5.39014 3.61967 3.08853 5.77053C0.354082 8.3278 -0.0787622 10.5508 0.0982847 11.482C0.734472 14.7868 5.29185 16.9377 7.11477 18.5311C7.02294 18.5836 6.93758 18.6296 6.86558 18.6689C5.95405 19.1213 2.47864 20.9376 1.6131 22.859C0.629566 25.036 1.7706 26.5968 2.52463 26.8065C4.86561 27.4557 7.27213 26.2886 8.56391 24.3606C9.85569 22.4328 9.69833 19.9278 9.10166 18.7803C9.09505 18.7672 9.08858 18.754 9.07536 18.7409C9.31147 18.6033 9.55405 18.459 9.79016 18.3213C10.2241 18.0648 10.6636 17.8177 11.1082 17.5802C10.8852 18.1901 10.7212 18.918 10.6426 19.9672C10.5442 21.2 11.049 22.7999 11.7114 23.4294C12.0066 23.705 12.354 23.7115 12.5771 23.7115C13.3508 23.7115 13.6984 23.0688 14.0853 22.3082C14.5573 21.3771 14.9836 20.2951 14.9836 20.2951C14.9836 20.2951 14.4524 23.2197 15.8951 23.2197C16.4196 23.2197 16.9508 22.5377 17.1869 22.1902V22.1967C17.1869 22.1967 17.2 22.177 17.2263 22.1311C17.2787 22.0459 17.3115 21.9933 17.3115 21.9933V21.9804C17.5213 21.6131 17.9935 20.7803 18.6951 19.3967C19.6 17.6131 20.4722 15.3837 20.4722 15.3837C20.4722 15.3837 20.5509 15.9279 20.8197 16.8328C20.9772 17.3639 21.3048 17.9475 21.5672 18.5114C21.3574 18.8066 21.2262 18.9704 21.2262 18.9704L21.2328 18.977C21.0622 19.1999 20.8787 19.4425 20.6754 19.6788C19.9606 20.5311 19.1083 21.5083 18.9901 21.7901C18.8523 22.1245 18.8852 22.3672 19.1476 22.564C19.3378 22.7083 19.6786 22.7278 20.0263 22.7083C20.6689 22.6623 21.1213 22.5049 21.3442 22.4066C21.6918 22.282 22.0984 22.0917 22.4786 21.8098C23.1803 21.2917 23.6064 20.5508 23.5672 19.5739C23.5475 19.0361 23.3705 18.4984 23.154 17.9934C23.2197 17.9017 23.2786 17.8099 23.3443 17.718C24.4524 16.0983 25.3115 14.3212 25.3115 14.3212C25.3115 14.3212 25.3903 14.8655 25.659 15.7705C25.7902 16.2295 26.0591 16.7279 26.295 17.213C25.2524 18.059 24.6098 19.0426 24.3803 19.6852C23.9673 20.8787 24.2885 21.4163 24.8983 21.5409C25.1737 21.6 25.5672 21.4688 25.8557 21.3442C26.2229 21.2262 26.6557 21.023 27.0689 20.7212C27.7706 20.2033 28.4459 19.4819 28.4065 18.505C28.3868 18.059 28.2688 17.6196 28.1049 17.1934C28.9901 16.8263 30.1311 16.623 31.5868 16.7934C34.7082 17.1606 35.3246 19.1081 35.2064 19.928C35.0885 20.7475 34.4327 21.1934 34.2164 21.3311C33.9999 21.4689 33.9279 21.5148 33.9476 21.6131C33.9737 21.7573 34.0786 21.7509 34.2623 21.7246C34.5181 21.6787 35.9017 21.0622 35.9606 19.554C36.0591 17.6262 34.2229 15.5213 30.977 15.541ZM6.89835 23.659C5.86222 24.7868 4.41969 25.2131 3.79672 24.8525C3.12791 24.4655 3.39018 22.7999 4.66227 21.6066C5.43599 20.8787 6.43274 20.2032 7.09508 19.7901C7.24583 19.6983 7.46886 19.5673 7.73774 19.4033C7.78358 19.377 7.80988 19.3639 7.80988 19.3639L7.96724 19.2655C8.43271 20.9704 7.98693 22.4721 6.89835 23.659ZM14.4394 18.5311C14.0787 19.4099 13.3246 21.659 12.8656 21.5345C12.4722 21.4295 12.2294 19.7246 12.7869 18.0394C13.0688 17.1934 13.6655 16.1835 14.0131 15.7902C14.577 15.1606 15.2 14.9507 15.3508 15.2066C15.541 15.541 14.6623 17.9803 14.4394 18.5311ZM20.6623 21.5082C20.5114 21.5869 20.3673 21.6394 20.3016 21.6C20.2558 21.5737 20.3673 21.4688 20.3673 21.4688C20.3673 21.4688 21.1476 20.6295 21.4557 20.2491C21.6329 20.0263 21.8426 19.764 22.0656 19.4688V19.554C22.0656 20.5574 21.095 21.2328 20.6622 21.5082H20.6623ZM25.4623 20.4131C25.3507 20.3344 25.3704 20.0721 25.7442 19.2524C25.8885 18.9311 26.2294 18.3935 26.8131 17.8754C26.8786 18.0852 26.9246 18.2885 26.918 18.4787C26.9114 19.7443 26.0066 20.2164 25.4623 20.4131Z" fill="#CD6799"/>
</g>
<defs>
<clipPath id="clip0_22_94">
<rect width="36" height="27" fill="white"/>
</clipPath>
</defs>
</svg>
