<svg width="36" height="36" viewBox="0 0 36 36" fill="none" xmlns="http://www.w3.org/2000/svg">
<path d="M12.0867 28.1146L15.5362 30.0299H20.7528L25.6328 26.3659L27.8204 20.6201L22.7721 14.5413L21.3418 11.1272L14.3583 11.3769L14.4424 13.2923L13.0962 15.7903L10.9928 19.8707L10.5721 23.2848L12.0867 28.1146Z" fill="#ECEFF1"/>
<path d="M26.3059 16.1235C24.9597 14.2082 23.8659 13.0424 23.277 10.6276C22.688 8.21266 23.4453 8.87894 22.9404 6.79699C22.688 5.7146 22.2673 4.96506 21.8467 4.38217C21.3418 3.79928 20.7529 3.46614 20.4162 3.38289C19.6591 2.96664 17.8921 2.30036 15.7046 3.46614C13.4328 4.63192 13.6852 7.13013 14.106 12.2098C14.106 12.5428 14.0217 12.9593 13.8535 13.2923C13.517 14.0418 12.9279 14.7078 12.4232 15.2909C11.8342 16.1235 11.2452 16.9563 10.8246 17.8722C9.81493 19.7875 8.88933 22.2023 9.14175 23.1183C9.5625 23.0351 14.8632 31.0292 14.8632 31.1957C15.1997 31.1125 16.63 31.1125 17.8921 31.1125C19.6591 31.0292 20.6686 30.946 22.0991 31.279C22.0991 31.0292 22.0148 30.7793 22.0148 30.5296C22.0148 30.0299 22.0991 29.6135 22.1832 29.0306C22.2673 28.6143 22.3515 28.198 22.4356 27.6984C21.5942 28.4478 20.0797 29.2805 18.6494 29.5303C17.3873 29.78 15.2838 29.3638 14.2741 28.1146C14.3584 28.1146 14.5266 28.1146 14.6108 28.0314C14.8632 27.9481 15.1156 27.8649 15.1997 27.6984C15.4522 27.282 15.2838 26.8656 15.1156 26.6158C14.9473 26.3659 13.6852 25.4499 13.0963 24.9504C12.5073 24.4508 12.1708 24.2009 11.8342 23.8679L11.1611 23.2016C10.9928 23.0351 10.9087 22.8686 10.8246 22.7852C10.6563 22.369 10.5722 21.8693 10.6563 21.2032C10.7404 20.2871 11.0769 19.5376 11.4976 18.705C11.666 18.3718 12.0866 17.7057 12.0866 17.7057C12.0866 17.7057 10.6563 21.2032 11.4136 22.2857C11.4136 22.2857 11.4976 21.2032 11.8342 20.1206C12.0866 19.3711 12.5073 18.2886 13.0122 17.7057C13.517 17.1228 14.779 14.9577 14.8632 13.6253C14.8632 13.0424 14.9473 12.4595 14.9473 12.0433C14.6108 11.71 20.5005 10.8775 20.837 11.7934C20.9211 12.1265 22.0991 15.1242 22.7721 16.7064C23.1086 17.4559 23.5294 18.1221 23.7818 18.9547C24.0342 19.8708 24.2024 21.1198 24.2024 22.369C24.2024 22.6187 24.2024 23.0351 24.1183 23.4515C24.2866 23.4515 27.568 19.954 23.6977 17.0395C23.6977 17.0395 26.0535 18.1221 26.1377 20.2871C26.2218 22.0358 25.4645 23.4515 25.2963 23.7012C25.3804 23.7012 27.0631 24.4508 27.1472 24.4508C27.4839 24.4508 28.1569 24.2009 28.1569 24.2009C28.2412 23.9511 28.4934 23.2848 28.4934 23.0351C29.0825 21.1198 27.6521 18.0388 26.3059 16.1235Z" fill="#263238"/>
<path d="M15.6204 10.6276C16.2245 10.6276 16.7142 9.88187 16.7142 8.96219C16.7142 8.04236 16.2245 7.29676 15.6204 7.29676C15.0164 7.29676 14.5266 8.04236 14.5266 8.96219C14.5266 9.88187 15.0164 10.6276 15.6204 10.6276ZM19.4066 10.7941C20.1966 10.7941 20.837 9.93658 20.837 8.87879C20.837 7.82115 20.1966 6.96362 19.4066 6.96362C18.6167 6.96362 17.9763 7.82115 17.9763 8.87894C17.9763 9.93658 18.6167 10.7941 19.4066 10.7941Z" fill="#ECEFF1"/>
<path d="M16.2315 9.07608C16.1616 8.52863 15.8432 8.11744 15.5205 8.1578C15.1979 8.19816 14.9929 8.67474 15.0629 9.22233C15.1328 9.76979 15.451 10.181 15.7738 10.1406C16.0965 10.1001 16.3014 9.62354 16.2315 9.07608ZM19.3226 10.2945C19.7872 10.2945 20.1639 9.80986 20.1639 9.21193C20.1639 8.61413 19.7872 8.12939 19.3226 8.12939C18.8578 8.12939 18.4811 8.61413 18.4811 9.21193C18.4811 9.80986 18.8578 10.2945 19.3226 10.2945Z" fill="#212121"/>
<path d="M30.5128 27.5317C30.1763 27.3652 29.5872 27.1153 29.0824 26.3659C28.8301 25.9495 28.9142 24.7837 28.4934 24.2841C28.241 23.9511 27.9045 24.1176 27.8204 24.1176C27.0631 24.2841 25.2962 25.4499 24.1183 24.1176C23.95 23.9511 23.6976 23.7012 23.2769 23.7012C22.8562 23.7012 22.688 23.8677 22.5197 24.2008C22.3513 24.534 22.3513 24.7837 22.3513 25.6165C22.3513 26.2827 22.3514 27.032 22.2673 27.6149C22.0989 29.0306 21.8466 29.8634 21.8466 30.696C21.8466 31.6121 22.0989 32.195 22.4356 32.4447C22.688 32.6946 23.1086 32.8611 24.0342 32.8611C24.9597 32.8611 25.5486 32.5281 26.1377 31.9451C26.5583 31.5288 26.8948 31.3622 28.0728 30.5295C28.9983 29.9466 30.4287 29.1971 30.681 28.9474C30.8493 28.7809 31.1017 28.6975 31.1017 28.1978C31.1017 27.7816 30.7652 27.6149 30.5128 27.5317ZM13.6011 27.7816C12.7597 26.4492 12.6755 26.1994 12.0866 25.3666C11.5817 24.534 10.4879 22.9518 9.81491 22.9518C9.31007 22.9518 9.05765 23.2016 8.72113 23.5347C8.38447 23.8677 8.04796 24.6172 7.45902 25.0336C6.95418 25.4499 5.52388 25.3666 5.18737 25.8663C4.85071 26.3659 5.52388 27.1154 5.52388 28.3645C5.52388 28.8641 5.10313 29.1971 5.01904 29.5302C4.93494 29.9466 4.85071 30.1964 5.01904 30.5295C5.35555 31.0292 5.7763 31.1957 8.6369 31.7786C10.1514 32.1117 11.5817 32.9443 12.5073 33.0277C13.4328 33.111 15.0314 33.0277 15.0314 30.7793C15.1156 29.447 14.3584 29.1139 13.6011 27.7816ZM15.1997 12.7094C14.6949 12.3762 14.2741 12.0431 14.2741 11.5436C14.2741 11.044 14.6108 10.8773 15.1156 10.4611C15.1997 10.3777 16.1252 9.54504 17.0508 9.54504C17.9762 9.54504 19.07 10.1279 19.4908 10.2946C20.248 10.4609 21.0051 10.6276 20.9211 11.2105C20.837 12.0431 20.7529 12.2097 19.9114 12.6261C19.3224 12.7926 18.2286 13.7087 17.4714 13.7087C17.1349 13.7087 16.63 13.7087 16.2935 13.6253C16.0411 13.542 15.6203 13.1256 15.1997 12.7094Z" fill="#FFC107"/>
<path d="M15.0314 12.0431C15.1998 12.2097 15.4522 12.3764 15.7046 12.4595C15.8728 12.5427 16.1252 12.6261 16.1252 12.6261H16.8825C17.3032 12.6261 17.8922 12.4595 18.4811 12.1265C19.07 11.8766 19.1543 11.7101 19.5749 11.5436C19.9956 11.2937 20.4162 11.044 20.2481 10.9607C20.0797 10.8773 19.9114 10.9607 19.3225 11.2937C18.8176 11.6269 18.397 11.7934 17.8922 12.0432C17.6397 12.1265 17.3032 12.293 17.0508 12.293H16.2935C16.0411 12.293 15.8728 12.2097 15.6204 12.1265C15.4522 12.0431 15.3679 11.9599 15.2838 11.9599C15.1157 11.8766 14.779 11.5436 14.6108 11.4602C14.6108 11.4602 14.4425 11.4602 14.5266 11.5436L15.0314 12.0431ZM17.5556 10.2112C17.6397 10.3777 17.8081 10.3777 17.8922 10.4609C17.9763 10.5443 18.0605 10.5443 18.0605 10.5443C18.1446 10.4609 18.0605 10.2944 17.9763 10.2944C17.9763 10.1279 17.5556 10.1279 17.5556 10.2112ZM16.2094 10.3777C16.2094 10.4611 16.3776 10.5443 16.3776 10.4611C16.4619 10.3777 16.546 10.2944 16.6301 10.2944C16.7984 10.2112 16.7141 10.1279 16.4619 10.1279C16.2935 10.2112 16.2935 10.2944 16.2094 10.3777Z" fill="#634703"/>
<path d="M24.3707 25.1169V25.3667C24.539 25.6998 24.9596 25.7831 25.2961 25.7831C25.801 25.7831 26.3058 25.4499 26.5583 25.1169C26.5583 25.0337 26.6424 24.9503 26.7266 24.867C26.8948 24.6173 26.979 24.4508 27.0631 24.3674C27.0631 24.3674 26.979 24.2842 26.979 24.2009C26.8948 24.0344 26.6424 23.8678 26.3058 23.7845C26.0534 23.7013 25.6328 23.618 25.4645 23.618C24.7072 23.5348 24.2866 23.7845 24.0342 24.0344C24.0342 24.0344 24.1183 24.0344 24.1183 24.1177C24.2866 24.2842 24.3707 24.4508 24.3707 24.7005C24.4548 24.867 24.3707 24.9503 24.3707 25.1169Z" fill="#455A64"/>
</svg>
